<svg width="52" height="52" viewBox="0 0 52 52" fill="none" xmlns="http://www.w3.org/2000/svg">
<circle cx="26" cy="26" r="26" fill="#828282"/>
<path d="M35.75 17.75H16.25C15.8352 17.75 15.5 18.0852 15.5 18.5V33.5C15.5 33.9148 15.8352 34.25 16.25 34.25H35.75C36.1648 34.25 36.5 33.9148 36.5 33.5V18.5C36.5 18.0852 36.1648 17.75 35.75 17.75ZM33.8563 20.3023L26.4617 26.0563C26.2789 26.1992 26.0234 26.1992 25.8406 26.0563L18.4438 20.3023C18.4159 20.2808 18.3954 20.2511 18.3853 20.2174C18.3751 20.1837 18.3758 20.1476 18.3871 20.1143C18.3985 20.0809 18.42 20.052 18.4487 20.0315C18.4773 20.011 18.5117 20 18.5469 20H33.7531C33.7883 20 33.8227 20.011 33.8513 20.0315C33.88 20.052 33.9015 20.0809 33.9129 20.1143C33.9242 20.1476 33.9249 20.1837 33.9147 20.2174C33.9046 20.2511 33.8841 20.2808 33.8563 20.3023Z" fill="white"/>
</svg>
